<?xml version="1.0" encoding="UTF-8" standalone="no"?>
<svg
   xmlns:dc="http://purl.org/dc/elements/1.1/"
   xmlns:cc="http://creativecommons.org/ns#"
   xmlns:rdf="http://www.w3.org/1999/02/22-rdf-syntax-ns#"
   xmlns:svg="http://www.w3.org/2000/svg"
   xmlns="http://www.w3.org/2000/svg"
   xmlns:sodipodi="http://sodipodi.sourceforge.net/DTD/sodipodi-0.dtd"
   xmlns:inkscape="http://www.inkscape.org/namespaces/inkscape"
   inkscape:version="1.0 (4035a4fb49, 2020-05-01)"
   sodipodi:docname="CurrentLogo.svg"
   inkscape:export-ydpi="30.799999"
   inkscape:export-xdpi="30.799999"
   inkscape:export-filename="C:\Users\wayne.adm\Desktop\ChalkItUpWebsite\bitmap.png"
   id="svg8"
   version="1.1"
   viewBox="0 0 118.77483 139.74322"
   height="139.74323mm"
   width="118.77483mm">
  <defs
     id="defs2">
    <filter
       inkscape:collect="always"
       style="color-interpolation-filters:sRGB"
       id="filter1685"
       x="-0.12601756"
       width="1.2520351"
       y="-0.11453095"
       height="1.2290618">
      <feGaussianBlur
         inkscape:collect="always"
         stdDeviation="26.385323"
         id="feGaussianBlur1687" />
    </filter>
    <filter
       inkscape:collect="always"
       style="color-interpolation-filters:sRGB"
       id="filter1999"
       x="-0.33451897"
       width="1.6690379"
       y="-0.78099656"
       height="2.5619931">
      <feGaussianBlur
         inkscape:collect="always"
         stdDeviation="38.901958"
         id="feGaussianBlur2001" />
    </filter>
    <filter
       inkscape:collect="always"
       style="color-interpolation-filters:sRGB"
       id="filter2003"
       x="-1.2415431"
       width="3.4830861"
       y="-1.90388"
       height="4.8077598">
      <feGaussianBlur
         inkscape:collect="always"
         stdDeviation="38.901958"
         id="feGaussianBlur2005" />
    </filter>
  </defs>
  <sodipodi:namedview
     inkscape:window-maximized="0"
     inkscape:window-y="0"
     inkscape:window-x="2377"
     inkscape:window-height="1008"
     inkscape:window-width="1418"
     showgrid="false"
     inkscape:document-rotation="0"
     inkscape:current-layer="layer1"
     inkscape:document-units="mm"
     inkscape:cy="133.30655"
     inkscape:cx="938.40757"
     inkscape:zoom="0.24748737"
     inkscape:pageshadow="2"
     inkscape:pageopacity="0.0"
     borderopacity="1.0"
     bordercolor="#666666"
     pagecolor="#ffffff"
     id="base" />
  <metadata
     id="metadata5">
    <rdf:RDF>
      <cc:Work
         rdf:about="">
        <dc:format>image/svg+xml</dc:format>
        <dc:type
           rdf:resource="http://purl.org/dc/dcmitype/StillImage" />
      </cc:Work>
    </rdf:RDF>
  </metadata>
  <g
     transform="translate(96.668261,-39.799391)"
     id="layer1"
     inkscape:groupmode="layer"
     inkscape:label="Layer 1">
    <g
       style="stroke-width:1.416"
       transform="matrix(0.69304073,0,0,0.71964747,-105.26148,25.218176)"
       id="layer1-6"
       inkscape:label="Layer 1">
      <path
         transform="matrix(0.27239964,0,0,0.28575014,74.512052,70.771939)"
         style="opacity:0.259928;fill:#ffffff;fill-opacity:0.995037;stroke-width:5.07531;filter:url(#filter1999)"
         d="m 112.9707,317.77698 c -11.93874,-0.72975 -20.811612,-2.24097 -31.853332,-5.42525 -31.67195,-9.13382 -60.96652,-28.49904 -78.9762704,-52.20748 -7.03389,-9.25957 -12.1648496,-18.93676 -14.6875796,-27.70143 -3.84099,-13.34466 -6.28143,-33.9626 -4.01998,-33.9626 0.80876,0 2.40613,2.43302 3.73473,5.68854 0.94703,2.32053 2.30114,4.43084 3.1265796,4.87259 0.73489,0.3933 1.37322,0.42238 3.27333,0.14912 1.32842,-0.19106 1.41289,-0.1651 2.26987,0.69723 0.53125,0.53454 1.19011,1.6841 1.63423,2.85131 0.85863,2.2566 2.23011004,3.82016 3.58932,4.09199 1.6756,0.33512 4.83526,4.50639 8.34594,11.01797 5.8678404,10.88363 11.5447804,18.36483 20.7855704,27.39173 9.5788,9.35704 20.41057,17.02562 30.65467,21.70255 19.21501,8.77261 35.46684,12.60743 61.251052,14.45295 7.03683,0.50366 22.528,0.42928 27.64895,-0.13274 12.01672,-1.31885 22.11555,-3.85665 33.58023,-8.4386 17.84644,-7.13243 31.26976,-15.49501 42.58935,-26.53271 13.33307,-13.00104 21.24847,-26.90786 25.84815,-45.41337 1.23693,-4.97647 2.19022,-7.88694 3.07385,-9.38454 0.7411,-1.25608 1.52842,-1.14376 2.05568,0.29327 0.60259,1.64227 0.49758,10.11131 -0.21,16.93333 -0.31694,3.05594 -0.6219,6.07155 -0.67762,6.70139 -0.10952,1.23725 0.0457,2.16215 0.36295,2.16215 0.10909,0 0.83934,-1.19729 1.6228,-2.66062 2.69351,-5.03116 3.67366,-5.92741 3.67302,-3.35865 0,2.69907 -1.91079,9.27113 -4.66936,16.06556 -9.46256,23.30656 -27.67995,43.85318 -51.55425,58.14581 -21.21162,12.69863 -45.87711,20.23621 -72.05388,22.01916 -4.62007,0.31466 -15.12181,0.30509 -20.418,-0.0188 z"
         id="path1947"
         inkscape:connector-curvature="0" />
      <path
         transform="matrix(0.27239964,0,0,0.28575014,74.512052,70.771939)"
         style="opacity:0.184116;fill:#ffffff;fill-opacity:0.995037;stroke-width:5.07531;filter:url(#filter2003)"
         d="m 283.43902,191.30776 c -0.46715,-0.13505 -1.45873,-0.82982 -2.2035,-1.54387 -1.38899,-1.33176 -2.76911,-1.84764 -3.94468,-1.47453 -0.82793,0.26276 -3.23048,-1.16046 -6.36201,-3.76869 -1.52694,-1.27178 -6.52756,-6.07822 -11.1125,-10.681 -8.00497,-8.03608 -10.6313,-10.39836 -11.77584,-10.59188 -0.58184,-0.0984 -0.6341,0.42418 -0.25939,2.59469 0.17822,1.03243 0.12353,1.16801 -0.93364,2.3149 -2.23179,2.42123 -5.93206,4.82049 -14.94917,9.69311 -6.36643,3.44027 -9.72772,5.04002 -12.18343,5.79851 -4.53411,1.40046 -5.88039,0.22944 -7.93236,-6.89968 -1.10252,-3.8304 -1.36901,-5.86827 -0.93811,-7.17388 0.40703,-1.23331 2.31127,-2.99022 6.37215,-5.87915 4.36991,-3.10875 8.46341,-6.23435 10.58333,-8.0809 7.64233,-6.65687 14.47239,-10.9771 19.7268,-12.47785 3.02247,-0.86326 6.72106,-0.82273 9.17671,0.10055 2.7519,1.03469 4.5798,2.25546 7.05625,4.7125 4.34909,4.31506 7.20354,8.84994 13.48608,21.42546 7.69638,15.40555 9.66679,20.71595 8.10918,21.8549 -0.56951,0.41643 -0.72024,0.42249 -1.91587,0.0768 z"
         id="path1949"
         inkscape:connector-curvature="0" />
      <path
         transform="matrix(0.27239964,0,0,0.28575014,74.512052,70.771939)"
         style="opacity:0.184116;fill:#ffffff;stroke-width:5.07531;filter:url(#filter1685)"
         d="m 123.02487,439.33842 c -59.595553,-2.1645 -116.484413,-20.27211 -164.438553,-52.3404 -30.93968,-20.69026 -56.55274,-45.80253 -77.047197,-75.54072 -25.11338,-36.4404 -40.68893,-78.43652 -45.04116,-121.44375 -1.02284,-10.10735 -1.19387,-13.97355 -1.19387,-26.9875 0,-13.01396 0.17103,-16.88015 1.19387,-26.9875 6.77892,-66.98701 40.34353,-129.776949 93.910237,-175.679601 35.82402,-30.698496 79.6496,-52.999445 126.86771,-64.557499 32.898423,-8.05289 67.581443,-10.89345 101.600003,-8.32112 55.87516,4.22503 109.72358,23.006214 154.51667,53.892151 8.54734,5.893604 17.48861,12.760261 19.37559,14.879968 3.48533,3.915133 5.2768,8.873755 5.0191,13.89233 -0.15899,3.096424 -1.85103,9.906577 -3.1714,12.764329 -2.76307,5.980348 -8.56189,11.764164 -15.10739,15.068317 -9.9513,5.023398 -22.84656,6.080419 -32.93912,2.700015 -1.53263,-0.513344 -2.55651,-1.125916 -4.7625,-2.84934 -23.21261,-18.134868 -51.6662,-32.43926 -81.15205,-40.797344 -32.57129,-9.232689 -66.5543,-11.824865 -100.10135,-7.635593 -42.535493,5.311725 -82.620543,21.347643 -116.037973,46.420688 -14.70641,11.034197 -28.93425,24.829514 -40.37935,39.151847 -25.00624,31.292632 -40.50677,68.992032 -44.276077,107.685432 -1.57683,16.18668 -1.20171,33.73287 1.056227,49.40522 4.31352,29.94026 15.42872,58.80625 32.46179,84.30274 15.63575,23.40488 36.41405,44.23894 60.1332398,60.29458 49.1140302,33.24555 109.4680832,47.49093 169.4656332,39.99902 43.91184,-5.48331 85.61081,-22.47826 118.82991,-48.43071 2.20599,-1.72342 3.22987,-2.33598 4.7625,-2.84933 10.04893,-3.36579 22.89762,-2.33518 32.79246,2.63028 6.66408,3.34423 12.4646,9.10061 15.25405,15.13805 1.32037,2.85774 3.01241,9.66791 3.1714,12.76433 0.2577,5.01856 -1.53377,9.97719 -5.0191,13.89231 -1.88698,2.11971 -10.82825,8.98637 -19.37559,14.87999 -51.83005,35.73806 -115.75193,55.17232 -180.18125,54.78073 -4.51115,-0.0274 -9.09506,-0.0823 -10.18646,-0.12192 z"
         id="path1495"
         inkscape:connector-curvature="0" />
      <path
         inkscape:connector-curvature="0"
         id="path1487"
         d="m 74.698204,131.90438 c -0.05613,-0.15344 -0.055,-0.92493 0.0016,-1.14679 0.05935,-0.23232 0.145718,-0.21346 0.281209,0.0614 0.136137,0.27617 0.155393,0.9378 0.03184,1.09397 -0.114961,0.14531 -0.259878,0.14136 -0.314725,-0.009 z"
         style="fill:#000000;stroke-width:1.41599" />
      <path
         inkscape:connector-curvature="0"
         id="path1491"
         d="m 108.02398,196.31295 c -16.233805,-0.6185 -31.73031,-5.79275 -44.793,-14.95627 -8.427958,-5.91225 -15.404946,-13.08808 -20.987629,-21.58577 -6.840876,-10.41285 -11.08365,-22.41325 -12.269196,-34.70257 -0.278621,-2.88818 -0.32521,-3.99295 -0.32521,-7.71168 0,-3.71875 0.04659,-4.82351 0.32521,-7.71169 1.846576,-19.141543 10.989563,-37.083777 25.581115,-50.200466 9.75845,-8.7721 21.696523,-15.144599 34.558719,-18.447315 8.961517,-2.301115 18.409161,-3.112805 27.675801,-2.377761 15.22038,1.207302 29.88867,6.574029 42.09029,15.39969 2.32829,1.684098 4.76389,3.646246 5.2779,4.251953 0.9494,1.11875 1.4374,2.535677 1.3672,3.969735 -0.0433,0.884804 -0.50422,2.830806 -0.86389,3.647409 -0.75265,1.708885 -2.33225,3.361612 -4.11524,4.305774 -2.71073,1.435437 -6.2234,1.73748 -8.97261,0.77153 -0.41749,-0.146689 -0.69639,-0.321731 -1.2973,-0.8142 -6.32311,-5.182041 -14.07386,-9.269523 -22.10579,-11.657847 -8.87241,-2.638242 -18.12937,-3.378956 -27.26757,-2.181871 -11.586654,1.517826 -22.505808,6.100092 -31.608703,13.264718 -4.006021,3.153023 -7.88168,7.095037 -10.999321,11.187645 -6.811691,8.941874 -11.034029,19.714486 -12.060788,30.771126 -0.429528,4.62535 -0.327345,9.63917 0.287717,14.11755 1.175001,8.55543 4.202777,16.80389 8.842579,24.08952 4.259173,6.68795 9.919175,12.64128 16.380273,17.22918 13.378644,9.49992 29.819063,13.57054 46.162373,11.42973 11.96157,-1.56686 23.32036,-6.42317 32.36923,-13.83908 0.60091,-0.49247 0.87981,-0.66751 1.2973,-0.8142 2.73733,-0.96177 6.23731,-0.66728 8.93266,0.7516 1.81529,0.95562 3.39535,2.6005 4.15519,4.3257 0.35967,0.8166 0.82058,2.76261 0.86389,3.64741 0.0702,1.43406 -0.4178,2.85099 -1.3672,3.96973 -0.51401,0.60571 -2.94961,2.56786 -5.2779,4.25196 -14.11849,10.21216 -31.53079,15.7655 -49.08131,15.6536 -1.22884,-0.008 -2.47749,-0.0235 -2.77479,-0.0348 z"
         style="fill:#09ff76;fill-opacity:1;stroke-width:1.41599" />
      <path
         inkscape:connector-curvature="0"
         id="path1489"
         d="m 105.28523,161.57676 c -3.25211,-0.20853 -5.669082,-0.64036 -8.676842,-1.55027 -8.62743,-2.60999 -16.60726,-8.14361 -21.51311,-14.9183 -1.91603,-2.64592 -3.3137,-5.41118 -4.00089,-7.91568 -1.04628,-3.81324 -1.71106,-9.70482 -1.09504,-9.70482 0.22031,0 0.65543,0.69524 1.01734,1.6255 0.25797,0.66309 0.62683,1.26611 0.85168,1.39234 0.20018,0.11239 0.37406,0.1207 0.89165,0.0426 0.36186,-0.0546 0.38487,-0.0472 0.61831,0.19923 0.14472,0.15274 0.32419,0.48123 0.44517,0.81476 0.23389,0.64482 0.60748,1.09161 0.97773,1.16929 0.45643,0.0958 1.31712,1.2877 2.27343,3.14838 1.59839,3.11 3.14479,5.24776 5.66198,7.82719 2.60926,2.67378 5.55983,4.86508 8.35032,6.20151 5.23416,2.50678 9.661162,3.60258 16.684772,4.12993 1.91683,0.14392 6.13662,0.12267 7.53156,-0.0379 3.27335,-0.37686 6.02427,-1.10203 9.14725,-2.41133 4.86136,-2.03809 8.51787,-4.4277 11.60132,-7.58172 3.63192,-3.71505 5.78808,-7.68893 7.04103,-12.97688 0.33694,-1.42203 0.59661,-2.25369 0.83731,-2.68163 0.20188,-0.35893 0.41634,-0.32683 0.55997,0.0838 0.16414,0.46928 0.13554,2.88931 -0.0572,4.8387 -0.0863,0.87323 -0.1694,1.73495 -0.18458,1.91492 -0.0298,0.35355 0.0125,0.61784 0.0989,0.61784 0.0297,0 0.22863,-0.34213 0.44205,-0.76028 0.73371,-1.43765 1.0007,-1.69375 1.00053,-0.95973 0,0.77126 -0.5205,2.64923 -1.27193,4.59074 -2.5776,6.65985 -7.54001,12.53105 -14.04336,16.61517 -5.77804,3.62863 -12.49691,5.7825 -19.62745,6.29198 -1.25851,0.0899 -4.11918,0.0872 -5.56186,-0.005 z"
         style="fill:#0a83fc;fill-opacity:0.995037;stroke-width:1.41599" />
      <path
         inkscape:connector-curvature="0"
         id="path1483"
         d="m 151.72074,125.43816 c -0.12725,-0.0386 -0.39736,-0.23712 -0.60023,-0.44116 -0.37836,-0.38055 -0.75431,-0.52797 -1.07453,-0.42135 -0.22553,0.0751 -0.87998,-0.3316 -1.73301,-1.0769 -0.41594,-0.36342 -1.77811,-1.73686 -3.02704,-3.0521 -2.18055,-2.29631 -2.89597,-2.97133 -3.20774,-3.02663 -0.15849,-0.0281 -0.17273,0.12121 -0.0707,0.74143 0.0486,0.29502 0.0336,0.33376 -0.25432,0.66148 -0.60794,0.69187 -1.61589,1.37746 -4.07215,2.76981 -1.73421,0.98306 -2.64982,1.44019 -3.31876,1.65693 -1.23509,0.40018 -1.60182,0.0656 -2.16077,-1.97159 -0.30033,-1.09454 -0.37292,-1.67686 -0.25554,-2.04994 0.11087,-0.35241 0.62959,-0.85445 1.73577,-1.67996 1.19036,-0.88833 2.30543,-1.78147 2.88289,-2.30912 2.08177,-1.9022 3.94228,-3.13671 5.37358,-3.56555 0.82332,-0.24668 1.83081,-0.23509 2.49973,0.0287 0.74962,0.29567 1.24754,0.6445 1.92212,1.3466 1.18469,1.23303 1.96224,2.52887 3.6736,6.12233 2.09649,4.40214 2.63323,5.91958 2.20894,6.24504 -0.15513,0.11899 -0.19619,0.12073 -0.52188,0.0219 z"
         style="fill:#0a83fc;fill-opacity:0.995037;stroke-width:1.41599" />
    </g>
    <text
       transform="scale(0.9651089,1.0361525)"
       id="text867"
       y="134.23033"
       x="96.917725"
       style="font-style:normal;font-variant:normal;font-weight:bold;font-stretch:normal;font-size:66.7759px;line-height:1.25;font-family:sans-serif;-inkscape-font-specification:'sans-serif Bold';letter-spacing:0px;word-spacing:0px;fill:#333333;fill-opacity:1;stroke:none;stroke-width:0.264583"
       xml:space="preserve"><tspan
         style="font-style:normal;font-variant:normal;font-weight:normal;font-stretch:normal;font-family:'Segoe UI';-inkscape-font-specification:'Segoe UI';fill:#333333;fill-opacity:1;stroke-width:0.264583"
         y="134.23033"
         x="96.917725"
         id="tspan865"
         sodipodi:role="line" /></text>
  </g>
</svg>
